# xmcd
#
# Track frame offsets:
#	182
#	23477
#	40852
#	47145
#	66427
#	79017
#	90652
#	105907
#	118945
#	129550
#	137877
#	160982
#	163977
#	179750
#	200125
#
# Disc length: 2755 seconds
#
# Revision: 1
# Processed by: cddbd v1.5.2PL0 Copyright (c) Steve Scherf et al.
# Submitted via: audiograbber 1.83.01
#
DISCID=d70ac10f
DTITLE=Mouloudji - Chante Jacques Prévert
DYEAR=1992
DGENRE=Chanson
TTITLE0=Les feuilles mortes
TTITLE1=Barbara
TTITLE2=Et la fête continue
TTITLE3=La chanson dans le sang
TTITLE4=L'inventaire
TTITLE5=Deux escargots s'en vont à l'enterrement d'une feuille morte
TTITLE6=L'orgue de barbarie
TTITLE7=Compagnons des mauvais jours
TTITLE8=La chanson du géolier
TTITLE9=Le retour au pays
TTITLE10=A la belle étoile
TTITLE11=Quartier libre
TTITLE12=La grasse matinée
TTITLE13=Dans ma maison
TTITLE14=La fête foraine
EXTD=
EXTT0=
EXTT1=
EXTT2=
EXTT3=
EXTT4=
EXTT5=
EXTT6=
EXTT7=
EXTT8=
EXTT9=
EXTT10=
EXTT11=
EXTT12=
EXTT13=
EXTT14=
PLAYORDER=
